<svg width="112" height="24" viewBox="0 0 112 24" fill="none" xmlns="http://www.w3.org/2000/svg">
<path d="M0 12C0 5.37258 5.37258 0 12 0C18.6274 0 24 5.37258 24 12C24 18.6274 18.6274 24 12 24H5.14286C2.30253 24 0 21.6975 0 18.8571V12Z" fill="url(#paint0_linear_2775_23195)"/>
<path d="M14.8184 17.6826C14.3507 17.8759 13.8517 17.9736 13.3232 17.9736H7.35938V14.9726H13.3232C13.5427 14.9726 13.7329 14.8944 13.8896 14.7402C14.0463 14.586 14.126 14.3989 14.126 14.1826C14.126 13.9672 14.0463 13.8048 13.8818 13.7314C13.7258 13.662 13.5384 13.6269 13.3232 13.6269H10.083C9.54683 13.6269 9.04507 13.5268 8.57617 13.3271C8.10798 13.1258 7.69874 12.8552 7.35156 12.5136C7.00425 12.1642 6.72764 11.7592 6.52441 11.2988C6.328 10.8389 6.22954 10.3439 6.22949 9.81638C6.22949 9.28898 6.32811 8.79513 6.52441 8.33395C6.72899 7.87334 7.00434 7.47049 7.35156 7.12888C7.69865 6.78744 8.10605 6.51926 8.5752 6.32712H8.57617C9.04368 6.12615 9.54672 6.02635 10.083 6.02634H16.3662V9.02731H10.083C9.86353 9.02735 9.67333 9.10554 9.5166 9.25974C9.35997 9.41394 9.28027 9.60107 9.28027 9.81735C9.28028 10.0333 9.36 10.2343 9.5166 10.3965V10.3974C9.67333 10.5516 9.86354 10.6298 10.083 10.6299H13.3232C13.8532 10.6299 14.3515 10.7185 14.8193 10.8965C15.2875 11.0681 15.697 11.3093 16.0439 11.6211C16.3909 11.9328 16.6671 12.3078 16.8701 12.7461C17.0742 13.1837 17.1768 13.6629 17.1768 14.1826C17.1768 14.7023 17.0744 15.2051 16.8701 15.665C16.6656 16.1189 16.3902 16.5197 16.043 16.8691C15.6958 17.2107 15.2878 17.4813 14.8184 17.6826Z" fill="white" stroke="white" stroke-width="0.0535714"/>
<path d="M37.5099 10.872C36.534 10.872 35.7703 11.2012 35.2187 11.8158C34.6671 12.4522 34.3914 13.2643 34.3914 14.2738C34.3914 14.7567 34.455 15.2175 34.6035 15.6126C34.7308 16.0296 34.9429 16.3807 35.2187 16.6661C35.4733 16.9733 35.8127 17.2147 36.1946 17.3903C36.5764 17.5659 37.0007 17.6537 37.5099 17.6537C38.1887 17.6537 38.7827 17.5 39.3343 17.1708C39.8646 16.8636 40.3101 16.4027 40.692 15.7662L43.5559 18.2462C43.1741 18.7291 42.7922 19.168 42.3679 19.5631C41.9436 19.9362 41.4769 20.2654 40.989 20.5507C40.4799 20.814 39.9495 21.0335 39.3555 21.2091C38.7615 21.3408 38.1039 21.4286 37.4038 21.4286C36.3431 21.4286 35.3672 21.253 34.4762 20.9238C33.564 20.5726 32.7791 20.1117 32.1214 19.4972C31.4426 18.8608 30.9334 18.1146 30.5728 17.2367C30.1909 16.3588 30 15.3712 30 14.2738C30 13.1765 30.1909 12.1889 30.5728 11.311C30.9546 10.4331 31.4638 9.68689 32.1426 9.05042C32.8003 8.43591 33.5852 7.95307 34.4974 7.60192C35.3884 7.27271 36.3431 7.09714 37.4038 7.09714C38.7191 7.09714 39.9071 7.38245 40.9254 7.93113C41.9224 8.50175 42.8134 9.29184 43.5771 10.3014L40.692 12.7595C40.3526 12.1669 39.9071 11.706 39.3767 11.3549C38.8251 11.0476 38.2099 10.872 37.5099 10.872Z" fill="white"/>
<path d="M49.7604 2.57144V21.4286H45.4609V2.57144H49.7604Z" fill="white"/>
<path d="M62.2537 7.54995H66.0239V20.9758H62.2742V19.889C61.7009 20.4097 61.0458 20.7946 60.3497 21.0663C59.6126 21.3154 58.8756 21.4286 58.1181 21.4286C57.1558 21.4059 56.2754 21.2248 55.4975 20.8626C54.699 20.5003 54.0234 20.0022 53.4501 19.3683C52.8768 18.7343 52.4264 17.9872 52.1193 17.1269C51.7918 16.2665 51.6484 15.3383 51.6484 14.2968C51.6484 13.2553 51.8122 12.2818 52.1603 11.3762C52.4879 10.5159 52.9383 9.74607 53.532 9.11214C54.1053 8.47821 54.7809 7.98012 55.5793 7.61787C56.3573 7.27826 57.1967 7.09714 58.0976 7.09714C58.8756 7.09714 59.6331 7.21034 60.3292 7.43675C61.0253 7.66315 61.66 8.0254 62.2537 8.50085V7.54995ZM58.7527 17.5344C59.6126 17.5344 60.2882 17.2401 60.8206 16.6288C61.3324 16.0401 61.5985 15.2477 61.5985 14.2968C61.5985 13.3006 61.3324 12.5082 60.8206 11.8969C60.2882 11.3083 59.6126 11.0139 58.7527 11.0139C57.8928 11.0139 57.1967 11.3083 56.6849 11.8969C56.1526 12.5082 55.9069 13.3006 55.9069 14.2968C55.9069 15.2477 56.1526 16.0401 56.6849 16.6288C57.1967 17.2401 57.8928 17.5344 58.7527 17.5344Z" fill="white"/>
<path d="M75.835 21.4286H68.8521V17.7814H75.835C76.0827 17.7814 76.2965 17.6914 76.4735 17.5131C76.6504 17.3348 76.7396 17.1192 76.7396 16.8696C76.7396 16.6199 76.6504 16.44 76.4735 16.3594C76.2965 16.2787 76.0827 16.2384 75.835 16.2384H72.0582C71.4289 16.2384 70.8397 16.1175 70.289 15.8771C69.7397 15.6352 69.2597 15.3096 68.8521 14.8986C68.4444 14.4784 68.1198 13.9915 67.8813 13.4379C67.6505 12.8843 67.5352 12.2888 67.5352 11.6546C67.5352 11.0204 67.6505 10.4265 67.8813 9.87131C68.1213 9.31772 68.4444 8.8339 68.8521 8.42297C69.2597 8.01204 69.7382 7.6895 70.289 7.45845C70.8382 7.21654 71.4289 7.09714 72.0582 7.09714H79.4134V10.7443H72.0582C71.8105 10.7443 71.5966 10.8343 71.4197 11.0126C71.2428 11.1909 71.1536 11.4065 71.1536 11.6562C71.1536 11.9058 71.2428 12.1384 71.4197 12.326C71.5966 12.5044 71.8105 12.5943 72.0582 12.5943H75.835C76.4565 12.5943 77.0411 12.7013 77.5904 12.9153C78.1396 13.1215 78.6196 13.4115 79.0273 13.7868C79.4349 14.1621 79.7596 14.6133 79.998 15.1405C80.238 15.6678 80.358 16.2446 80.358 16.8696C80.358 17.4945 80.238 18.0992 79.998 18.6528C79.758 19.1987 79.4349 19.6809 79.0273 20.1012C78.6196 20.5121 78.1411 20.8378 77.5904 21.0797C77.0411 21.3123 76.455 21.4286 75.835 21.4286Z" fill="white"/>
<path d="M89.5928 21.4286H82.6099V17.7814H89.5928C89.8405 17.7814 90.0544 17.6914 90.2313 17.5131C90.4082 17.3348 90.4974 17.1192 90.4974 16.8696C90.4974 16.6199 90.4082 16.44 90.2313 16.3594C90.0544 16.2787 89.8405 16.2384 89.5928 16.2384H85.816C85.1867 16.2384 84.5975 16.1175 84.0468 15.8771C83.4975 15.6352 83.0176 15.3096 82.6099 14.8986C82.2022 14.4784 81.8776 13.9915 81.6391 13.4379C81.4084 12.8843 81.293 12.2888 81.293 11.6546C81.293 11.0204 81.4084 10.4265 81.6391 9.87131C81.8791 9.31772 82.2022 8.8339 82.6099 8.42297C83.0176 8.01204 83.496 7.6895 84.0468 7.45845C84.596 7.21654 85.1867 7.09714 85.816 7.09714H93.1712V10.7443H85.816C85.5683 10.7443 85.3544 10.8343 85.1775 11.0126C85.0006 11.1909 84.9114 11.4065 84.9114 11.6562C84.9114 11.9058 85.0006 12.1384 85.1775 12.326C85.3544 12.5044 85.5683 12.5943 85.816 12.5943H89.5928C90.2143 12.5943 90.799 12.7013 91.3482 12.9153C91.8974 13.1215 92.3774 13.4115 92.7851 13.7868C93.1928 14.1621 93.5174 14.6133 93.7558 15.1405C93.9958 15.6678 94.1158 16.2446 94.1158 16.8696C94.1158 17.4945 93.9958 18.0992 93.7558 18.6528C93.5158 19.1987 93.1928 19.6809 92.7851 20.1012C92.3774 20.5121 91.8989 20.8378 91.3482 21.0797C90.799 21.3123 90.2128 21.4286 89.5928 21.4286Z" fill="white"/>
<path d="M100.678 7.09716V21.4286H96.3789V7.09716H100.678ZM100.678 2.57144V6.34287H96.3789V2.57144H100.678Z" fill="white"/>
<path d="M108.089 7.09716H110.532V10.8686H108.089V16.318C108.089 16.6814 108.161 16.9767 108.341 17.1811C108.502 17.4083 108.736 17.5218 109.041 17.5218H110.711V21.4286H107.658C107.191 21.4286 106.778 21.3377 106.383 21.156C105.988 20.9516 105.629 20.679 105.341 20.3383C105.018 19.9749 104.785 19.5661 104.623 19.0891C104.443 18.5894 104.354 18.0442 104.354 17.4083V10.8686H102.414V7.09716H104.354V2.57144H108.089V7.09716Z" fill="white"/>
<defs>
<linearGradient id="paint0_linear_2775_23195" x1="0" y1="12" x2="24" y2="12" gradientUnits="userSpaceOnUse">
<stop stop-color="#3D82F5"/>
<stop offset="1" stop-color="#0360EF"/>
</linearGradient>
</defs>
</svg>
